<mxfile host="app.diagrams.net" modified="2021-05-20T23:23:47.220Z" agent="5.0 (Windows)" etag="93Q36Odu_gk2LqyLrf7l" version="14.6.13" type="github">
  <diagram id="FI2uEq299le9un6FWLTC" name="Page-1">
    <mxGraphModel dx="1005" dy="745" grid="1" gridSize="10" guides="1" tooltips="1" connect="1" arrows="1" fold="1" page="1" pageScale="1" pageWidth="827" pageHeight="1169" math="0" shadow="0">
      <root>
        <mxCell id="0" />
        <mxCell id="1" parent="0" />
        <mxCell id="gdXBI0OG8b-McS20DtHi-1" value="" style="rounded=0;whiteSpace=wrap;html=1;" vertex="1" parent="1">
          <mxGeometry x="350" y="340" width="120" height="60" as="geometry" />
        </mxCell>
      </root>
    </mxGraphModel>
  </diagram>
</mxfile>
